<svg width="40" height="40" viewBox="0 0 40 40" fill="none" xmlns="http://www.w3.org/2000/svg">
<rect x="0.5" y="0.5" width="39" height="39" rx="19.5" stroke="#2D5B30"/>
<path d="M21.3 20.22C21.8336 19.7581 22.2616 19.1869 22.5549 18.545C22.8482 17.9032 23 17.2057 23 16.5C23 15.1739 22.4732 13.9021 21.5355 12.9645C20.5979 12.0268 19.3261 11.5 18 11.5C16.6739 11.5 15.4021 12.0268 14.4645 12.9645C13.5268 13.9021 13 15.1739 13 16.5C13 17.2057 13.1518 17.9032 13.4451 18.545C13.7384 19.1869 14.1664 19.7581 14.7 20.22C13.3001 20.8539 12.1125 21.8775 11.279 23.1685C10.4455 24.4596 10.0015 25.9633 10 27.5C10 27.7652 10.1054 28.0196 10.2929 28.2071C10.4804 28.3946 10.7348 28.5 11 28.5C11.2652 28.5 11.5196 28.3946 11.7071 28.2071C11.8946 28.0196 12 27.7652 12 27.5C12 25.9087 12.6321 24.3826 13.7574 23.2574C14.8826 22.1321 16.4087 21.5 18 21.5C19.5913 21.5 21.1174 22.1321 22.2426 23.2574C23.3679 24.3826 24 25.9087 24 27.5C24 27.7652 24.1054 28.0196 24.2929 28.2071C24.4804 28.3946 24.7348 28.5 25 28.5C25.2652 28.5 25.5196 28.3946 25.7071 28.2071C25.8946 28.0196 26 27.7652 26 27.5C25.9985 25.9633 25.5545 24.4596 24.721 23.1685C23.8875 21.8775 22.6999 20.8539 21.3 20.22ZM18 19.5C17.4067 19.5 16.8266 19.3241 16.3333 18.9944C15.8399 18.6648 15.4554 18.1962 15.2284 17.6481C15.0013 17.0999 14.9419 16.4967 15.0576 15.9147C15.1734 15.3328 15.4591 14.7982 15.8787 14.3787C16.2982 13.9591 16.8328 13.6734 17.4147 13.5576C17.9967 13.4419 18.5999 13.5013 19.1481 13.7284C19.6962 13.9554 20.1648 14.3399 20.4944 14.8333C20.8241 15.3266 21 15.9067 21 16.5C21 17.2956 20.6839 18.0587 20.1213 18.6213C19.5587 19.1839 18.7956 19.5 18 19.5ZM28.91 20L29.71 19.21C29.8032 19.1168 29.8772 19.0061 29.9277 18.8842C29.9781 18.7624 30.0041 18.6319 30.0041 18.5C30.0041 18.3681 29.9781 18.2376 29.9277 18.1158C29.8772 17.9939 29.8032 17.8832 29.71 17.79C29.6168 17.6968 29.5061 17.6228 29.3842 17.5723C29.2624 17.5219 29.1319 17.4959 29 17.4959C28.8681 17.4959 28.7376 17.5219 28.6158 17.5723C28.4939 17.6228 28.3832 17.6968 28.29 17.79L27.5 18.59L26.71 17.79C26.6168 17.6968 26.5061 17.6228 26.3842 17.5723C26.2624 17.5219 26.1319 17.4959 26 17.4959C25.7337 17.4959 25.4783 17.6017 25.29 17.79C25.1968 17.8832 25.1228 17.9939 25.0723 18.1158C25.0219 18.2376 24.9959 18.3681 24.9959 18.5C24.9959 18.7663 25.1017 19.0217 25.29 19.21L26.09 20L25.29 20.79C25.1963 20.883 25.1219 20.9936 25.0711 21.1154C25.0203 21.2373 24.9942 21.368 24.9942 21.5C24.9942 21.632 25.0203 21.7627 25.0711 21.8846C25.1219 22.0064 25.1963 22.117 25.29 22.21C25.383 22.3037 25.4936 22.3781 25.6154 22.4289C25.7373 22.4797 25.868 22.5058 26 22.5058C26.132 22.5058 26.2627 22.4797 26.3846 22.4289C26.5064 22.3781 26.617 22.3037 26.71 22.21L27.5 21.41L28.29 22.21C28.383 22.3037 28.4936 22.3781 28.6154 22.4289C28.7373 22.4797 28.868 22.5058 29 22.5058C29.132 22.5058 29.2627 22.4797 29.3846 22.4289C29.5064 22.3781 29.617 22.3037 29.71 22.21C29.8037 22.117 29.8781 22.0064 29.9289 21.8846C29.9797 21.7627 30.0058 21.632 30.0058 21.5C30.0058 21.368 29.9797 21.2373 29.9289 21.1154C29.8781 20.9936 29.8037 20.883 29.71 20.79L28.91 20Z" fill="#2D5B30"/>
</svg>
