<svg width="20" height="20" viewBox="0 0 20 20" fill="none" xmlns="http://www.w3.org/2000/svg">
<path d="M18.0917 7.74174L14.7584 4.40841C14.6807 4.33071 14.5884 4.26907 14.4869 4.22702C14.3854 4.18497 14.2766 4.16333 14.1667 4.16333C13.9448 4.16333 13.732 4.25149 13.575 4.40841C13.4181 4.56533 13.33 4.77816 13.33 5.00007C13.33 5.22199 13.4181 5.43482 13.575 5.59174L15.4917 7.50007H5.83337C5.61235 7.50007 5.40039 7.58787 5.24411 7.74415C5.08783 7.90043 5.00003 8.11239 5.00003 8.33341C5.00003 8.55442 5.08783 8.76638 5.24411 8.92266C5.40039 9.07894 5.61235 9.16674 5.83337 9.16674H17.5C17.6646 9.16592 17.8252 9.11642 17.9616 9.02447C18.098 8.93253 18.2042 8.80226 18.2667 8.65007C18.3305 8.49831 18.348 8.33105 18.3168 8.1694C18.2857 8.00774 18.2073 7.85893 18.0917 7.74174ZM14.1667 10.8334H2.50003C2.33551 10.8342 2.17492 10.8837 2.03848 10.9757C1.90205 11.0676 1.79588 11.1979 1.73337 11.3501C1.66955 11.5018 1.65212 11.6691 1.68326 11.8308C1.71441 11.9924 1.79274 12.1412 1.90837 12.2584L5.2417 15.5917C5.31917 15.6698 5.41134 15.7318 5.51289 15.7741C5.61444 15.8165 5.72336 15.8382 5.83337 15.8382C5.94338 15.8382 6.0523 15.8165 6.15385 15.7741C6.2554 15.7318 6.34757 15.6698 6.42503 15.5917C6.50314 15.5143 6.56514 15.4221 6.60744 15.3206C6.64975 15.219 6.67153 15.1101 6.67153 15.0001C6.67153 14.8901 6.64975 14.7811 6.60744 14.6796C6.56514 14.578 6.50314 14.4859 6.42503 14.4084L4.50837 12.5001H14.1667C14.3877 12.5001 14.5997 12.4123 14.756 12.256C14.9122 12.0997 15 11.8878 15 11.6667C15 11.4457 14.9122 11.2338 14.756 11.0775C14.5997 10.9212 14.3877 10.8334 14.1667 10.8334Z" fill="#2D5B30"/>
</svg>
