<svg width="18" height="15" viewBox="0 0 18 15" fill="none" xmlns="http://www.w3.org/2000/svg">
<path d="M17.267 7.16683C15.5836 3.2585 12.417 0.833496 9.0003 0.833496C5.58363 0.833496 2.41697 3.2585 0.733633 7.16683C0.687747 7.27197 0.664062 7.38545 0.664062 7.50016C0.664063 7.61488 0.687747 7.72836 0.733633 7.8335C2.41697 11.7418 5.58363 14.1668 9.0003 14.1668C12.417 14.1668 15.5836 11.7418 17.267 7.8335C17.3129 7.72836 17.3365 7.61488 17.3365 7.50016C17.3365 7.38545 17.3129 7.27197 17.267 7.16683ZM9.0003 12.5002C6.3503 12.5002 3.85863 10.5918 2.41697 7.50016C3.85863 4.4085 6.3503 2.50016 9.0003 2.50016C11.6503 2.50016 14.142 4.4085 15.5836 7.50016C14.142 10.5918 11.6503 12.5002 9.0003 12.5002ZM9.0003 4.16683C8.34103 4.16683 7.69656 4.36233 7.1484 4.7286C6.60024 5.09487 6.17299 5.61546 5.9207 6.22455C5.66841 6.83364 5.6024 7.50386 5.73102 8.15046C5.85963 8.79707 6.1771 9.39101 6.64328 9.85719C7.10945 10.3234 7.7034 10.6408 8.35 10.7694C8.9966 10.8981 9.66682 10.8321 10.2759 10.5798C10.885 10.3275 11.4056 9.90023 11.7719 9.35206C12.1381 8.8039 12.3336 8.15943 12.3336 7.50016C12.3336 6.61611 11.9824 5.76826 11.3573 5.14314C10.7322 4.51802 9.88435 4.16683 9.0003 4.16683ZM9.0003 9.16683C8.67066 9.16683 8.34843 9.06908 8.07435 8.88595C7.80027 8.70281 7.58665 8.44251 7.4605 8.13797C7.33435 7.83342 7.30135 7.49831 7.36566 7.17501C7.42997 6.85171 7.5887 6.55474 7.82179 6.32165C8.05488 6.08856 8.35185 5.92983 8.67515 5.86552C8.99845 5.80121 9.33356 5.83422 9.63811 5.96036C9.94265 6.08651 10.2029 6.30013 10.3861 6.57421C10.5692 6.84829 10.667 7.17053 10.667 7.50016C10.667 7.94219 10.4914 8.36611 10.1788 8.67867C9.86625 8.99123 9.44233 9.16683 9.0003 9.16683Z" fill="#6F6F6F"/>
<path d="M17.267 7.16683C15.5836 3.2585 12.417 0.833496 9.0003 0.833496C5.58363 0.833496 2.41697 3.2585 0.733633 7.16683C0.687747 7.27197 0.664062 7.38545 0.664062 7.50016C0.664063 7.61488 0.687747 7.72836 0.733633 7.8335C2.41697 11.7418 5.58363 14.1668 9.0003 14.1668C12.417 14.1668 15.5836 11.7418 17.267 7.8335C17.3129 7.72836 17.3365 7.61488 17.3365 7.50016C17.3365 7.38545 17.3129 7.27197 17.267 7.16683ZM9.0003 12.5002C6.3503 12.5002 3.85863 10.5918 2.41697 7.50016C3.85863 4.4085 6.3503 2.50016 9.0003 2.50016C11.6503 2.50016 14.142 4.4085 15.5836 7.50016C14.142 10.5918 11.6503 12.5002 9.0003 12.5002ZM9.0003 4.16683C8.34103 4.16683 7.69656 4.36233 7.1484 4.7286C6.60024 5.09487 6.17299 5.61546 5.9207 6.22455C5.66841 6.83364 5.6024 7.50386 5.73102 8.15046C5.85963 8.79707 6.1771 9.39101 6.64328 9.85719C7.10945 10.3234 7.7034 10.6408 8.35 10.7694C8.9966 10.8981 9.66682 10.8321 10.2759 10.5798C10.885 10.3275 11.4056 9.90023 11.7719 9.35206C12.1381 8.8039 12.3336 8.15943 12.3336 7.50016C12.3336 6.61611 11.9824 5.76826 11.3573 5.14314C10.7322 4.51802 9.88435 4.16683 9.0003 4.16683ZM9.0003 9.16683C8.67066 9.16683 8.34843 9.06908 8.07435 8.88595C7.80027 8.70281 7.58665 8.44251 7.4605 8.13797C7.33435 7.83342 7.30135 7.49831 7.36566 7.17501C7.42997 6.85171 7.5887 6.55474 7.82179 6.32165C8.05488 6.08856 8.35185 5.92983 8.67515 5.86552C8.99845 5.80121 9.33356 5.83422 9.63811 5.96036C9.94265 6.08651 10.2029 6.30013 10.3861 6.57421C10.5692 6.84829 10.667 7.17053 10.667 7.50016C10.667 7.94219 10.4914 8.36611 10.1788 8.67867C9.86625 8.99123 9.44233 9.16683 9.0003 9.16683Z" fill="black" fill-opacity="0.2"/>
</svg>
