<svg width="20" height="21" viewBox="0 0 20 21" fill="none" xmlns="http://www.w3.org/2000/svg">
<path d="M4.99984 6.33366V5.50033H2.49984C2.27882 5.50033 2.06686 5.41253 1.91058 5.25625C1.7543 5.09997 1.6665 4.88801 1.6665 4.66699C1.6665 4.44598 1.7543 4.23402 1.91058 4.07774C2.06686 3.92146 2.27882 3.83366 2.49984 3.83366H4.99984V3.00033C4.99984 2.77931 5.08764 2.56735 5.24392 2.41107C5.4002 2.25479 5.61216 2.16699 5.83317 2.16699C6.05418 2.16699 6.26615 2.25479 6.42243 2.41107C6.57871 2.56735 6.6665 2.77931 6.6665 3.00033V6.33366C6.6665 6.55467 6.57871 6.76663 6.42243 6.92291C6.26615 7.0792 6.05418 7.16699 5.83317 7.16699C5.61216 7.16699 5.4002 7.0792 5.24392 6.92291C5.08764 6.76663 4.99984 6.55467 4.99984 6.33366ZM8.33317 4.66699C8.33317 4.44598 8.42097 4.23402 8.57725 4.07774C8.73353 3.92146 8.94549 3.83366 9.1665 3.83366L17.4998 3.83366C17.7209 3.83366 17.9328 3.92146 18.0891 4.07774C18.2454 4.23402 18.3332 4.44598 18.3332 4.66699C18.3332 4.88801 18.2454 5.09997 18.0891 5.25625C17.9328 5.41253 17.7209 5.50033 17.4998 5.50033L9.1665 5.50033C8.94549 5.50033 8.73353 5.41253 8.57725 5.25625C8.42097 5.09997 8.33317 4.88801 8.33317 4.66699ZM14.9998 10.5003C14.9998 10.2793 15.0876 10.0674 15.2439 9.91107C15.4002 9.75479 15.6122 9.66699 15.8332 9.66699H17.4998C17.7209 9.66699 17.9328 9.75479 18.0891 9.91107C18.2454 10.0674 18.3332 10.2793 18.3332 10.5003C18.3332 10.7213 18.2454 10.9333 18.0891 11.0896C17.9328 11.2459 17.7209 11.3337 17.4998 11.3337L15.8332 11.3337C15.6122 11.3337 15.4002 11.2459 15.2439 11.0896C15.0876 10.9333 14.9998 10.7213 14.9998 10.5003ZM8.33317 18.0003V17.167H2.49984C2.27882 17.167 2.06686 17.0792 1.91058 16.9229C1.7543 16.7666 1.6665 16.5547 1.6665 16.3337C1.6665 16.1126 1.7543 15.9007 1.91058 15.7444C2.06686 15.5881 2.27882 15.5003 2.49984 15.5003H8.33317V14.667C8.33317 14.446 8.42097 14.234 8.57725 14.0777C8.73353 13.9215 8.94549 13.8337 9.1665 13.8337C9.38752 13.8337 9.59948 13.9215 9.75576 14.0777C9.91204 14.234 9.99984 14.446 9.99984 14.667L9.99984 18.0003C9.99984 18.2213 9.91204 18.4333 9.75576 18.5896C9.59948 18.7459 9.38752 18.8337 9.1665 18.8337C8.94549 18.8337 8.73353 18.7459 8.57725 18.5896C8.42097 18.4333 8.33317 18.2213 8.33317 18.0003ZM11.6665 16.3337C11.6665 16.1126 11.7543 15.9007 11.9106 15.7444C12.0669 15.5881 12.2788 15.5003 12.4998 15.5003L17.4998 15.5003C17.7209 15.5003 17.9328 15.5881 18.0891 15.7444C18.2454 15.9007 18.3332 16.1126 18.3332 16.3337C18.3332 16.5547 18.2454 16.7666 18.0891 16.9229C17.9328 17.0792 17.7209 17.167 17.4998 17.167H12.4998C12.2788 17.167 12.0669 17.0792 11.9106 16.9229C11.7543 16.7666 11.6665 16.5547 11.6665 16.3337ZM11.6665 12.167V11.3337H2.49984C2.27882 11.3337 2.06686 11.2459 1.91058 11.0896C1.7543 10.9333 1.6665 10.7213 1.6665 10.5003C1.6665 10.2793 1.7543 10.0674 1.91058 9.91107C2.06686 9.75479 2.27882 9.66699 2.49984 9.66699H11.6665V8.83366C11.6665 8.61265 11.7543 8.40068 11.9106 8.2444C12.0669 8.08812 12.2788 8.00033 12.4998 8.00033C12.7209 8.00033 12.9328 8.08812 13.0891 8.2444C13.2454 8.40068 13.3332 8.61265 13.3332 8.83366V12.167C13.3332 12.388 13.2454 12.6 13.0891 12.7562C12.9328 12.9125 12.7209 13.0003 12.4998 13.0003C12.2788 13.0003 12.0669 12.9125 11.9106 12.7562C11.7543 12.6 11.6665 12.388 11.6665 12.167Z" fill="#2D5B30"/>
</svg>
