<svg width="20" height="20" viewBox="0 0 20 20" fill="none" xmlns="http://www.w3.org/2000/svg">
<rect y="20" width="20" height="20" rx="2" transform="rotate(-90 0 20)" fill="#D1DBCF"/>
<path d="M9.99992 10.5917L7.04992 7.64169C6.89378 7.48648 6.68257 7.39937 6.46242 7.39937C6.24226 7.39937 6.03105 7.48648 5.87492 7.64169C5.79681 7.71916 5.73481 7.81133 5.69251 7.91288C5.6502 8.01443 5.62842 8.12335 5.62842 8.23336C5.62842 8.34337 5.6502 8.45229 5.69251 8.55384C5.73481 8.65539 5.79681 8.74756 5.87492 8.82503L9.40825 12.3584C9.48572 12.4365 9.57789 12.4985 9.67944 12.5408C9.78098 12.5831 9.88991 12.6049 9.99992 12.6049C10.1099 12.6049 10.2188 12.5831 10.3204 12.5408C10.4219 12.4985 10.5141 12.4365 10.5916 12.3584L14.1666 8.82503C14.2438 8.74716 14.3049 8.65481 14.3464 8.55328C14.3879 8.45175 14.4089 8.34303 14.4082 8.23336C14.4089 8.12369 14.3879 8.01497 14.3464 7.91344C14.3049 7.81191 14.2438 7.71956 14.1666 7.64169C14.0104 7.48648 13.7992 7.39937 13.5791 7.39937C13.3589 7.39937 13.1477 7.48648 12.9916 7.64169L9.99992 10.5917Z" fill="#2D5B30"/>
</svg>
