<svg width="18" height="18" viewBox="0 0 18 18" fill="none" xmlns="http://www.w3.org/2000/svg">
<path d="M5.66655 8.16675C5.50174 8.16675 5.34062 8.21562 5.20358 8.30719C5.06654 8.39876 4.95973 8.52891 4.89666 8.68118C4.83358 8.83345 4.81708 9.00101 4.84923 9.16266C4.88139 9.32431 4.96076 9.47279 5.0773 9.58934C5.19384 9.70588 5.34233 9.78525 5.50398 9.8174C5.66563 9.84956 5.83319 9.83305 5.98546 9.76998C6.13773 9.70691 6.26788 9.6001 6.35945 9.46306C6.45101 9.32602 6.49989 9.1649 6.49989 9.00008C6.49989 8.77907 6.41209 8.56711 6.25581 8.41083C6.09953 8.25455 5.88757 8.16675 5.66655 8.16675ZM8.99989 8.16675C8.83507 8.16675 8.67395 8.21562 8.53691 8.30719C8.39987 8.39876 8.29306 8.52891 8.22999 8.68118C8.16692 8.83345 8.15041 9.00101 8.18257 9.16266C8.21472 9.32431 8.29409 9.47279 8.41063 9.58934C8.52718 9.70588 8.67566 9.78525 8.83731 9.8174C8.99896 9.84956 9.16652 9.83305 9.31879 9.76998C9.47106 9.70691 9.60121 9.6001 9.69278 9.46306C9.78435 9.32602 9.83322 9.1649 9.83322 9.00008C9.83322 8.77907 9.74542 8.56711 9.58914 8.41083C9.43286 8.25455 9.2209 8.16675 8.99989 8.16675ZM12.3332 8.16675C12.1684 8.16675 12.0073 8.21562 11.8702 8.30719C11.7332 8.39876 11.6264 8.52891 11.5633 8.68118C11.5002 8.83345 11.4837 9.00101 11.5159 9.16266C11.5481 9.32431 11.6274 9.47279 11.744 9.58934C11.8605 9.70588 12.009 9.78525 12.1706 9.8174C12.3323 9.84956 12.4999 9.83305 12.6521 9.76998C12.8044 9.70691 12.9345 9.6001 13.0261 9.46306C13.1177 9.32602 13.1666 9.1649 13.1666 9.00008C13.1666 8.77907 13.0788 8.56711 12.9225 8.41083C12.7662 8.25455 12.5542 8.16675 12.3332 8.16675ZM8.99989 0.666748C7.90554 0.666748 6.82191 0.882296 5.81086 1.30109C4.79981 1.71987 3.88115 2.3337 3.10733 3.10752C1.54453 4.67033 0.666555 6.78994 0.666555 9.00008C0.65927 10.9244 1.32555 12.7905 2.54989 14.2751L0.883222 15.9417C0.76759 16.0589 0.68926 16.2077 0.658115 16.3694C0.62697 16.5311 0.644405 16.6983 0.708222 16.8501C0.777437 17 0.889642 17.126 1.03059 17.2121C1.17155 17.2981 1.33489 17.3404 1.49989 17.3334H8.99989C11.21 17.3334 13.3296 16.4554 14.8924 14.8926C16.4552 13.3298 17.3332 11.2102 17.3332 9.00008C17.3332 6.78994 16.4552 4.67033 14.8924 3.10752C13.3296 1.54472 11.21 0.666748 8.99989 0.666748ZM8.99989 15.6667H3.50822L4.28322 14.8917C4.36196 14.8146 4.4246 14.7225 4.46752 14.621C4.51043 14.5194 4.53276 14.4103 4.53322 14.3001C4.53009 14.0803 4.44023 13.8706 4.28322 13.7167C3.19204 12.6268 2.51253 11.1922 2.36046 9.65741C2.20839 8.12262 2.59317 6.58259 3.44924 5.29968C4.30531 4.01678 5.57971 3.07038 7.05532 2.62173C8.53092 2.17307 10.1164 2.24992 11.5417 2.83918C12.967 3.42843 14.1439 4.49364 14.8719 5.85332C15.5999 7.213 15.8339 8.78303 15.5342 10.2959C15.2344 11.8088 14.4193 13.171 13.2278 14.1503C12.0364 15.1296 10.5422 15.6655 8.99989 15.6667Z" fill="#6F6F6F"/>
<path d="M5.66655 8.16675C5.50174 8.16675 5.34062 8.21562 5.20358 8.30719C5.06654 8.39876 4.95973 8.52891 4.89666 8.68118C4.83358 8.83345 4.81708 9.00101 4.84923 9.16266C4.88139 9.32431 4.96076 9.47279 5.0773 9.58934C5.19384 9.70588 5.34233 9.78525 5.50398 9.8174C5.66563 9.84956 5.83319 9.83305 5.98546 9.76998C6.13773 9.70691 6.26788 9.6001 6.35945 9.46306C6.45101 9.32602 6.49989 9.1649 6.49989 9.00008C6.49989 8.77907 6.41209 8.56711 6.25581 8.41083C6.09953 8.25455 5.88757 8.16675 5.66655 8.16675ZM8.99989 8.16675C8.83507 8.16675 8.67395 8.21562 8.53691 8.30719C8.39987 8.39876 8.29306 8.52891 8.22999 8.68118C8.16692 8.83345 8.15041 9.00101 8.18257 9.16266C8.21472 9.32431 8.29409 9.47279 8.41063 9.58934C8.52718 9.70588 8.67566 9.78525 8.83731 9.8174C8.99896 9.84956 9.16652 9.83305 9.31879 9.76998C9.47106 9.70691 9.60121 9.6001 9.69278 9.46306C9.78435 9.32602 9.83322 9.1649 9.83322 9.00008C9.83322 8.77907 9.74542 8.56711 9.58914 8.41083C9.43286 8.25455 9.2209 8.16675 8.99989 8.16675ZM12.3332 8.16675C12.1684 8.16675 12.0073 8.21562 11.8702 8.30719C11.7332 8.39876 11.6264 8.52891 11.5633 8.68118C11.5002 8.83345 11.4837 9.00101 11.5159 9.16266C11.5481 9.32431 11.6274 9.47279 11.744 9.58934C11.8605 9.70588 12.009 9.78525 12.1706 9.8174C12.3323 9.84956 12.4999 9.83305 12.6521 9.76998C12.8044 9.70691 12.9345 9.6001 13.0261 9.46306C13.1177 9.32602 13.1666 9.1649 13.1666 9.00008C13.1666 8.77907 13.0788 8.56711 12.9225 8.41083C12.7662 8.25455 12.5542 8.16675 12.3332 8.16675ZM8.99989 0.666748C7.90554 0.666748 6.82191 0.882296 5.81086 1.30109C4.79981 1.71987 3.88115 2.3337 3.10733 3.10752C1.54453 4.67033 0.666555 6.78994 0.666555 9.00008C0.65927 10.9244 1.32555 12.7905 2.54989 14.2751L0.883222 15.9417C0.76759 16.0589 0.68926 16.2077 0.658115 16.3694C0.62697 16.5311 0.644405 16.6983 0.708222 16.8501C0.777437 17 0.889642 17.126 1.03059 17.2121C1.17155 17.2981 1.33489 17.3404 1.49989 17.3334H8.99989C11.21 17.3334 13.3296 16.4554 14.8924 14.8926C16.4552 13.3298 17.3332 11.2102 17.3332 9.00008C17.3332 6.78994 16.4552 4.67033 14.8924 3.10752C13.3296 1.54472 11.21 0.666748 8.99989 0.666748ZM8.99989 15.6667H3.50822L4.28322 14.8917C4.36196 14.8146 4.4246 14.7225 4.46752 14.621C4.51043 14.5194 4.53276 14.4103 4.53322 14.3001C4.53009 14.0803 4.44023 13.8706 4.28322 13.7167C3.19204 12.6268 2.51253 11.1922 2.36046 9.65741C2.20839 8.12262 2.59317 6.58259 3.44924 5.29968C4.30531 4.01678 5.57971 3.07038 7.05532 2.62173C8.53092 2.17307 10.1164 2.24992 11.5417 2.83918C12.967 3.42843 14.1439 4.49364 14.8719 5.85332C15.5999 7.213 15.8339 8.78303 15.5342 10.2959C15.2344 11.8088 14.4193 13.171 13.2278 14.1503C12.0364 15.1296 10.5422 15.6655 8.99989 15.6667Z" fill="black" fill-opacity="0.2"/>
</svg>
