<svg width="20" height="20" viewBox="0 0 20 20" fill="none" xmlns="http://www.w3.org/2000/svg">
<path d="M9.16659 1.66675C7.51841 1.66675 5.90725 2.15549 4.53684 3.07117C3.16643 3.98685 2.09832 5.28834 1.46759 6.81105C0.836863 8.33377 0.671835 10.0093 0.993378 11.6258C1.31492 13.2423 2.10859 14.7272 3.27403 15.8926C4.43947 17.0581 5.92433 17.8517 7.54084 18.1733C9.15734 18.4948 10.8329 18.3298 12.3556 17.6991C13.8783 17.0683 15.1798 16.0002 16.0955 14.6298C17.0112 13.2594 17.4999 11.6483 17.4999 10.0001C17.4999 8.90573 17.2844 7.8221 16.8656 6.81105C16.4468 5.80001 15.833 4.88135 15.0591 4.10752C14.2853 3.3337 13.3667 2.71987 12.3556 2.30109C11.3446 1.8823 10.2609 1.66675 9.16659 1.66675ZM9.16659 16.6667C7.84805 16.6667 6.55911 16.2758 5.46279 15.5432C4.36646 14.8107 3.51198 13.7695 3.00739 12.5513C2.50281 11.3331 2.37079 9.99269 2.62802 8.69948C2.88526 7.40627 3.52019 6.21839 4.45254 5.28604C5.38489 4.35369 6.57278 3.71875 7.86599 3.46151C9.15919 3.20428 10.4996 3.3363 11.7178 3.84088C12.936 4.34547 13.9772 5.19995 14.7097 6.29628C15.4423 7.39261 15.8333 8.68154 15.8333 10.0001C15.8333 11.7682 15.1309 13.4639 13.8806 14.7141C12.6304 15.9644 10.9347 16.6667 9.16659 16.6667ZM11.7499 10.5251L9.99992 9.51675V5.83342C9.99992 5.6124 9.91212 5.40044 9.75584 5.24416C9.59956 5.08788 9.3876 5.00008 9.16659 5.00008C8.94558 5.00008 8.73361 5.08788 8.57733 5.24416C8.42105 5.40044 8.33326 5.6124 8.33326 5.83342V10.0001C8.33326 10.0001 8.33326 10.0667 8.33326 10.1001C8.33819 10.1575 8.35226 10.2138 8.37492 10.2667C8.39208 10.3162 8.41443 10.3637 8.44159 10.4084C8.46439 10.4558 8.49234 10.5005 8.52492 10.5417L8.65826 10.6501L8.73326 10.7251L10.8999 11.9751C11.0269 12.0471 11.1706 12.0844 11.3166 12.0834C11.5011 12.0847 11.6808 12.0247 11.8276 11.9129C11.9743 11.801 12.0798 11.6436 12.1275 11.4654C12.1751 11.2871 12.1623 11.0981 12.0909 10.9279C12.0196 10.7577 11.8938 10.6161 11.7333 10.5251H11.7499Z" fill="#2D5B30"/>
</svg>
